<svg xmlns="http://www.w3.org/2000/svg" xmlns:xlink="http://www.w3.org/1999/xlink" width="5.986" height="14" viewBox="0 0 5.986 14"><defs><path id="a" d="M5.75230678,7.00558737 L3.94691654,7.00558737 C3.94691654,10.1408294 3.94691654,14 3.94691654,14 L1.27168489,14 C1.27168489,14 1.27168489,10.1782405 1.27168489,7.00558737 L0,7.00558737 L0,4.53354156 L1.27168489,4.53354156 L1.27168489,2.93458268 C1.27168489,1.78941524 1.77231303,0 3.97150095,0 L5.95389901,0.00825958702 L5.95389901,2.40791255 C5.95389901,2.40791255 4.74926254,2.40791255 4.51504008,2.40791255 C4.28081763,2.40791255 3.94781052,2.53520736 3.94781052,3.08131182 L3.94781052,4.53402742 L5.98608225,4.53402742 L5.75230678,7.00558737 Z"/></defs><g fill="none" fill-rule="evenodd"><mask id="b" fill="#fff"><use xlink:href="#a"/></mask><use xlink:href="#a" fill="#C2D1D9" fill-rule="nonzero"/><g fill="#AEAEAE" mask="url(#b)"><rect width="22.08" height="24" transform="translate(-8.28 -5)"/></g></g></svg>