<svg xmlns="http://www.w3.org/2000/svg" width="16.3" height="16.3" viewBox="0 0 16.3 16.3"><g stroke="#000" stroke-width=".3" transform="translate(.15 .15)"><path d="M2.14273642,16 C0.961232891,16 0,15.0387671 0,13.8572636 L0,3.0437319 C0,1.86222838 0.961232891,0.90099549 2.14273642,0.90099549 L8.45040433,0.90099549 C8.63837422,0.90099549 8.79085539,1.05336839 8.79085539,1.24144655 C8.79085539,1.42941644 8.63848249,1.58189761 8.45040433,1.58189761 L2.14273642,1.58189761 C1.33657116,1.58189761 0.680932195,2.23768695 0.680932195,3.04370183 L0.680932195,13.8572335 C0.680932195,14.6633988 1.33672154,15.3190377 2.14273642,15.3190377 L12.9562681,15.3190377 C13.7624333,15.3190377 14.4180723,14.6632484 14.4180723,13.8572335 L14.4180723,7.54956559 C14.4180723,7.36159571 14.5704452,7.20911453 14.7585234,7.20911453 C14.9464933,7.20911453 15.0989744,7.36148744 15.0989744,7.54956559 L15.0989744,13.8572335 C15.0989744,15.038737 14.1377415,16 12.956238,16 L2.14273642,16 Z"/><path d="M7.54905113,8.79158038 C7.46199851,8.79158038 7.37470831,8.75833227 7.30833238,8.69183905 C7.17534293,8.5589669 7.17534293,8.34338799 7.30833238,8.21039554 L15.2863759,0.232652766 C15.4191308,0.0996633185 15.6349473,0.0996633185 15.7678194,0.232652766 C15.9008089,0.36552492 15.9008089,0.581103824 15.7678194,0.714096279 L7.78977589,8.69183905 C7.72339996,8.75833227 7.63622705,8.79158038 7.54917444,8.79158038 L7.54905113,8.79158038 Z"/><path d="M15.6597262,6.08754766 C15.4717563,6.08754766 15.3192751,5.93514787 15.3192751,5.74706971 L15.3193926,0.790980474 C15.3193926,0.730243644 15.2700513,0.680899293 15.2093114,0.680899293 L10.2529214,0.680781819 C10.0649516,0.680781819 9.91247039,0.528408917 9.91247039,0.340330759 C9.91247039,0.152360872 10.0649606,0 10.2529214,0 L15.2090107,0 C15.6452211,0 16.000018,0.354796922 16.000018,0.791007361 L16.000018,5.7470966 C16.000018,5.93506649 15.8476451,6.08754766 15.659567,6.08754766 L15.6597262,6.08754766 Z"/></g></svg>