<svg xmlns="http://www.w3.org/2000/svg" xmlns:xlink="http://www.w3.org/1999/xlink" width="12.88" height="14" viewBox="0 0 12.88 14"><defs><path id="a" d="M10.390113,0 C11.7629944,0 12.8795439,1.21314494 12.8795439,2.70540742 L12.8795439,11.2940968 C12.8795439,12.7868551 11.7629944,14 10.3905691,14 L2.48897482,14 C1.11609335,14 0,12.7868551 0,11.2940968 L0,2.70540742 C0,1.21314494 1.11609335,0 2.48897482,0 L10.390113,0 Z M3.17678388,5.56301569 L1.25429371,5.56301569 L1.25429371,11.2940968 C1.25429371,12.0347746 1.80755126,12.6346542 2.48851872,12.6346542 L10.3896569,12.6346542 C11.0697121,12.6346542 11.6238819,12.0347746 11.6238819,11.2940968 L11.6238819,5.56301569 L9.70047948,5.56301569 C9.86787068,6.00623252 9.96228478,6.49158965 9.96228478,6.99925635 C9.96228478,9.10974185 8.38233082,10.8280746 6.43977195,10.8280746 C4.49721307,10.8280746 2.91771522,9.10974185 2.91771522,6.99925635 C2.91771522,6.49158965 3.010761,6.00623252 3.17678388,5.56301569 Z M6.44068416,4.53528808 C5.68400297,4.53528808 5.0148943,4.94181805 4.60211764,5.56251992 C4.33392684,5.96706682 4.17383335,6.46233932 4.17337587,6.99876058 C4.17200892,8.35766139 5.1895832,9.46322462 6.43931584,9.46322462 C7.68859237,9.46322462 8.70707886,8.35815716 8.70707886,6.99925635 C8.70707886,6.46283509 8.54561705,5.96756259 8.27833847,5.56301569 C7.86647403,4.94231382 7.19690924,4.53528808 6.44068416,4.53528808 Z M11.389443,1.61223839 L11.1052884,1.61322993 L9.2060597,1.61967492 L9.21335741,3.9929176 L11.389443,3.9849853 L11.389443,1.61223839 Z"/></defs><g fill="none" fill-rule="evenodd"><mask id="b" fill="#fff"><use xlink:href="#a"/></mask><use xlink:href="#a" fill="#000" fill-rule="nonzero"/><g fill="#AEAEAE" mask="url(#b)"><rect width="22.08" height="24" transform="translate(-4.6 -5)"/></g></g></svg>