<?xml version="1.0" encoding="UTF-8"?>
<svg width="294.469067px" height="40px" viewBox="0 0 294.469067 40" version="1.1" xmlns="http://www.w3.org/2000/svg" xmlns:xlink="http://www.w3.org/1999/xlink">
    <title>627BB7FF-9642-4230-AF18-ED6C76EC28DB</title>
    <defs>
        <path d="M19.7099704,6.76663751 C19.2004005,5.56583483 18.2982112,4.70931824 17.0034023,4.19708773 L11.3062435,1.91304348 C6.61987098,4.13830718 3.40373295,7.67353743 1.48240374,12.5775148 C1.08978429,13.6019758 0.747286473,14.6348341 0.52173913,15.6592951 C1.59100061,15.6592951 2.61014045,15.8860201 3.73787716,16.3478672 L11.0723426,19.3120864 C12.3671514,19.7655364 13.5533634,19.7655364 14.7395753,19.3120864 C15.9257873,18.8586365 16.7695014,18.0021199 17.2790713,16.7425367 L19.8185673,10.4110316 C20.3364908,9.21862619 20.2780156,7.96744019 19.7099704,6.76663751 M12.0956874,36.2522252 L21.4709835,40 C27.8020265,39.5482593 32.7113029,36.703966 36.332626,31.5926035 C36.2740826,31.1408628 36.1653593,30.6305631 35.9395493,30.0031455 C35.3708427,28.8068692 34.4676027,27.9033877 33.1712862,27.4432815 L26.2798999,24.5989881 C26.0959066,24.6910094 25.9202766,24.7412028 25.7613733,24.7662995 C25.5439266,24.8248585 25.3181166,24.8583208 25.0923066,24.8583208 C23.7123567,24.8583208 22.5833068,23.728969 22.5833068,22.3402846 C22.5833068,20.9432346 23.7039934,19.8222484 25.0923066,19.8222484 C26.2548099,19.8222484 27.2333198,20.6169775 27.5176732,21.6961358 L34.3588794,24.4986013 C35.605016,24.950342 36.8427893,24.950342 38.1474692,24.4986013 C38.7161758,24.214172 39.2179758,23.9297426 39.6695958,23.4780019 C40.6313791,17.9065332 39.5023291,12.9122887 36.1653593,8.25266702 L24.97522,3.81891564 L25.9370033,1.43472858 L26.1377232,0.907697751 C22.8007534,-0.0543426423 19.271427,-0.330406407 15.8257338,0.464322613 L18.2009204,1.42636301 C20.2917536,2.16253305 21.7637002,3.6432387 22.7171201,5.63424403 C23.6203601,7.62524937 23.6789034,9.60788914 22.8843868,11.5988945 L20.4004769,17.9650922 C19.5557803,19.9560975 18.142377,21.3782442 16.1100872,22.1729732 C14.0777973,22.9677023 12.0371441,22.9677023 10.0048542,22.1729732 L2.66184795,19.2199275 C-0.374041867,18.2244248 -0.0980518829,19.4541634 0.127758104,21.8550816 C0.395384755,24.7412028 1.23171804,27.4683782 2.72039128,30.07007 C4.70250117,33.5919744 7.83038765,36.4362678 11.4433474,38.1930372" id="path-1"></path>
    </defs>
    <g id="Version_01" stroke="none" stroke-width="1" fill="none" fill-rule="evenodd">
        <g id="1.1.1.Common_Template_VD_v2" transform="translate(-90, -20)">
            <g id="Logo" transform="translate(90, 20)">
                <g id="Drupal-Station-23" transform="translate(50.6667, 5.0667)" fill="#FFFFFF" fill-rule="nonzero">
                    <path d="M0,23.2224 C1.3448,23.3864 3.116,23.5176 5.4448,23.5176 C9.7416,23.5176 13.2512,22.5008 15.4488,20.5 C17.548,18.5976 18.8928,15.6784 18.8928,11.7096 C18.8928,7.9704 17.5808,5.3136 15.416,3.5752 C13.3824,1.8696 10.5616,1.0168 6.4288,1.0168 C4.0344,1.0168 1.804,1.2136 0,1.476 L0,23.2224 Z M4.0344,4.3952 C4.6248,4.264 5.5104,4.1656 6.7896,4.1656 C11.8408,4.1656 14.6616,6.9864 14.6288,11.8408 C14.6288,17.4496 11.5128,20.3688 6.2648,20.336 C5.4448,20.336 4.592,20.336 4.0344,20.2376 L4.0344,4.3952 Z" id="Shape"></path>
                    <path d="M22.2384,23.288 L26.2728,23.288 L26.2728,14.9896 C26.2728,14.5632 26.3056,14.1368 26.3712,13.776 C26.732,11.9392 28.0768,10.7256 29.9792,10.7256 C30.4712,10.7256 30.832,10.7584 31.1928,10.824 L31.1928,7.052 C30.8648,6.9864 30.6352,6.9536 30.2416,6.9536 C28.5032,6.9536 26.6336,8.1016 25.8464,10.332 L25.748,10.332 L25.584,7.3144 L22.1072,7.3144 C22.2056,8.7248 22.2384,10.2992 22.2384,12.464 L22.2384,23.288 Z" id="Path"></path>
                    <path d="M48.216,7.3144 L44.1816,7.3144 L44.1816,16.9576 C44.1816,17.4168 44.116,17.876 43.952,18.204 C43.5584,19.2536 42.5088,20.3688 40.8688,20.3688 C38.7368,20.3688 37.884,18.6632 37.884,16.0064 L37.884,7.3144 L33.8496,7.3144 L33.8496,16.6952 C33.8496,21.9104 36.5064,23.6488 39.3928,23.6488 C42.2792,23.6488 43.8536,22.0088 44.5424,20.8936 L44.6408,20.8936 L44.8376,23.288 L48.3472,23.288 C48.2816,21.976 48.216,20.4016 48.216,18.4992 L48.216,7.3144 Z" id="Path"></path>
                    <path d="M52.5784,29.7824 L56.6128,29.7824 L56.6128,21.5168 L56.6784,21.5168 C57.4984,22.796 59.1712,23.6488 61.172,23.6488 C64.8128,23.6488 68.4536,20.8608 68.4536,15.088 C68.4536,10.1024 65.4032,6.9536 61.7296,6.9536 C59.3024,6.9536 57.4328,7.9704 56.252,9.7744 L56.1864,9.7744 L55.9896,7.3144 L52.4472,7.3144 C52.5128,8.8232 52.5784,10.5288 52.5784,12.628 L52.5784,29.7824 Z M56.6128,14.1368 C56.6128,13.8088 56.6784,13.448 56.744,13.12 C57.1704,11.3488 58.712,10.1352 60.3848,10.1352 C62.976,10.1352 64.3536,12.4312 64.3536,15.252 C64.3536,18.4008 62.8448,20.5328 60.2864,20.5328 C58.548,20.5328 57.1376,19.352 56.7112,17.712 C56.6456,17.3512 56.6128,16.9904 56.6128,16.5968 L56.6128,14.1368 Z" id="Shape"></path>
                    <path d="M84.1648,13.7104 C84.1648,10.2008 82.6888,6.9536 77.572,6.9536 C75.0464,6.9536 72.98,7.6424 71.7992,8.364 L72.5864,10.988 C73.6688,10.2992 75.3088,9.8072 76.8832,9.8072 C79.704,9.8072 80.1304,11.5456 80.1304,12.5952 L80.1304,12.8576 C74.2264,12.8248 70.6512,14.8912 70.6512,18.8928 C70.6512,21.32 72.4552,23.6488 75.6696,23.6488 C77.7688,23.6488 79.4416,22.7632 80.3928,21.5168 L80.4912,21.5168 L80.7864,23.288 L84.4272,23.288 C84.2304,22.304 84.1648,20.8936 84.1648,19.4504 L84.1648,13.7104 Z M80.2288,17.6792 C80.2288,17.9744 80.2288,18.2696 80.1304,18.5648 C79.7368,19.7128 78.5888,20.7624 76.9488,20.7624 C75.6696,20.7624 74.6528,20.0408 74.6528,18.4664 C74.6528,16.0392 77.3752,15.4488 80.2288,15.4816 L80.2288,17.6792 Z" id="Shape"></path>
                    <polygon id="Path" points="88.4288 23.288 92.4632 23.288 92.4632 0 88.4288 0"></polygon>
                    <path d="M102.828,22.2384 C104.0416,22.9928 106.4688,23.6488 108.8304,23.6488 C114.5048,23.6488 117.1944,20.5656 117.1944,16.9904 C117.1944,13.8088 115.3576,11.8736 111.52,10.4304 C108.568,9.2824 107.2888,8.4952 107.2888,6.7896 C107.2888,5.4776 108.3712,4.1328 110.9296,4.1328 C112.996,4.1328 114.5376,4.756 115.3576,5.1824 L116.3088,1.9352 C115.1608,1.3448 113.4224,0.82 111.028,0.82 C106.2064,0.82 103.1888,3.5424 103.1888,7.1832 C103.1888,10.3648 105.5176,12.3 109.1912,13.612 C111.9792,14.6288 113.0944,15.6128 113.0944,17.2856 C113.0944,19.0896 111.6512,20.3032 109.0928,20.3032 C107.0264,20.3032 105.0256,19.6472 103.7464,18.8928 L102.828,22.2384 Z" id="Path"></path>
                    <path d="M121.3272,4.3296 L121.3272,7.3144 L119.064,7.3144 L119.064,10.332 L121.3272,10.332 L121.3272,17.8432 C121.3272,19.9424 121.7208,21.4184 122.6064,22.3368 C123.3608,23.1568 124.5744,23.6488 126.0832,23.6488 C127.3296,23.6488 128.412,23.452 129.0024,23.2224 L128.9368,20.172 C128.4776,20.3032 128.084,20.336 127.3624,20.336 C125.8208,20.336 125.296,19.352 125.296,17.384 L125.296,10.332 L129.1336,10.332 L129.1336,7.3144 L125.296,7.3144 L125.296,3.2144 L121.3272,4.3296 Z" id="Path"></path>
                    <path d="M144.5824,13.7104 C144.5824,10.2008 143.1064,6.9536 137.9896,6.9536 C135.464,6.9536 133.3976,7.6424 132.2168,8.364 L133.004,10.988 C134.0864,10.2992 135.7264,9.8072 137.3008,9.8072 C140.1216,9.8072 140.548,11.5456 140.548,12.5952 L140.548,12.8576 C134.644,12.8248 131.0688,14.8912 131.0688,18.8928 C131.0688,21.32 132.8728,23.6488 136.0872,23.6488 C138.1864,23.6488 139.8592,22.7632 140.8104,21.5168 L140.9088,21.5168 L141.204,23.288 L144.8448,23.288 C144.648,22.304 144.5824,20.8936 144.5824,19.4504 L144.5824,13.7104 Z M140.6464,17.6792 C140.6464,17.9744 140.6464,18.2696 140.548,18.5648 C140.1544,19.7128 139.0064,20.7624 137.3664,20.7624 C136.0872,20.7624 135.0704,20.0408 135.0704,18.4664 C135.0704,16.0392 137.7928,15.4488 140.6464,15.4816 L140.6464,17.6792 Z" id="Shape"></path>
                    <path d="M149.5024,4.3296 L149.5024,7.3144 L147.2392,7.3144 L147.2392,10.332 L149.5024,10.332 L149.5024,17.8432 C149.5024,19.9424 149.896,21.4184 150.7816,22.3368 C151.536,23.1568 152.7496,23.6488 154.2584,23.6488 C155.5048,23.6488 156.5872,23.452 157.1776,23.2224 L157.112,20.172 C156.6528,20.3032 156.2592,20.336 155.5376,20.336 C153.996,20.336 153.4712,19.352 153.4712,17.384 L153.4712,10.332 L157.3088,10.332 L157.3088,7.3144 L153.4712,7.3144 L153.4712,3.2144 L149.5024,4.3296 Z" id="Path"></path>
                    <path d="M164.3936,23.288 L164.3936,7.3144 L160.3592,7.3144 L160.3592,23.288 L164.3936,23.288 Z M162.3928,0.656 C161.048,0.656 160.1296,1.6072 160.1296,2.8536 C160.1296,4.0344 161.0152,5.0184 162.36,5.0184 C163.7704,5.0184 164.656,4.0344 164.656,2.8536 C164.6232,1.6072 163.7704,0.656 162.3928,0.656 Z" id="Shape"></path>
                    <path d="M176.0048,6.9536 C171.1832,6.9536 167.7392,10.168 167.7392,15.416 C167.7392,20.5656 171.2488,23.6488 175.7424,23.6488 C179.8096,23.6488 183.9424,21.0248 183.9424,15.1536 C183.9424,10.2992 180.7608,6.9536 176.0048,6.9536 Z M175.9064,9.8728 C178.6616,9.8728 179.7768,12.7592 179.7768,15.252 C179.7768,18.4992 178.1696,20.7296 175.8736,20.7296 C173.4464,20.7296 171.9048,18.4008 171.9048,15.3176 C171.9048,12.6608 173.0528,9.8728 175.9064,9.8728 Z" id="Shape"></path>
                    <path d="M187.2552,23.288 L191.2896,23.288 L191.2896,13.8744 C191.2896,13.4152 191.3552,12.9232 191.4864,12.5952 C191.9128,11.3816 193.028,10.2336 194.6352,10.2336 C196.8328,10.2336 197.6856,11.972 197.6856,14.268 L197.6856,23.288 L201.72,23.288 L201.72,13.8088 C201.72,8.7576 198.8336,6.9536 196.0456,6.9536 C193.3888,6.9536 191.6504,8.4624 190.9288,9.7088 L190.8304,9.7088 L190.6336,7.3144 L187.124,7.3144 C187.1896,8.692 187.2552,10.2336 187.2552,12.0704 L187.2552,23.288 Z" id="Path"></path>
                    <path d="M226.484,23.288 L226.484,19.9424 L217.7592,19.9424 L217.7592,19.8768 L219.596,18.2696 C223.3352,14.8256 226.0248,11.808 226.0248,8.0688 C226.0248,4.592 223.7288,1.6072 219.0056,1.6072 C216.316,1.6072 213.9872,2.5584 212.4456,3.8048 L213.6264,6.6584 C214.7088,5.8384 216.2832,4.8872 218.1856,4.8872 C220.9736,4.8872 221.9904,6.56 221.9904,8.4624 C221.9576,11.2832 219.596,13.8416 214.5776,18.4992 L212.052,20.828 L212.052,23.288 L226.484,23.288 Z" id="Path"></path>
                    <path d="M229.5344,22.1728 C230.6824,22.9272 232.9128,23.6488 235.504,23.6488 C240.7848,23.6488 243.8024,20.7952 243.8024,17.1872 C243.7696,14.3008 241.7032,12.3656 239.112,11.8736 L239.112,11.808 C241.736,10.8896 243.048,9.0528 243.048,6.8224 C243.048,4.0344 240.8176,1.6072 236.3896,1.6072 C233.864,1.6072 231.4696,2.4272 230.256,3.2472 L231.1744,6.1664 C232.06,5.576 233.7984,4.8216 235.5368,4.8216 C237.8984,4.8216 238.948,6.0352 238.948,7.5112 C238.948,9.6104 236.5864,10.4632 234.7496,10.4632 L232.9128,10.4632 L232.9128,13.4152 L234.7496,13.4152 C237.2096,13.4152 239.604,14.4976 239.604,17.0232 C239.604,18.696 238.3904,20.4344 235.3072,20.4344 C233.2736,20.4344 231.2728,19.6144 230.4528,19.1224 L229.5344,22.1728 Z" id="Path"></path>
                </g>
                <mask id="mask-2" fill="white">
                    <use xlink:href="#path-1"></use>
                </mask>
                <use id="XMLID_3_" fill="#FFFFFF" xlink:href="#path-1"></use>
            </g>
        </g>
    </g>
</svg>