<svg xmlns="http://www.w3.org/2000/svg" width="16" height="20" viewBox="0 0 16 20"><path d="M9.57898655,12.7999519 C9.28425833,12.5473664 8.98951508,12.2314954 8.65263664,11.8947673 C8.42105105,11.6421818 8.16846553,11.2843185 7.95790241,10.9052973 C8.3579385,9.53695663 8.54737388,8.2315856 8.12634163,7.59997143 C7.93690249,7.30524321 7.64217052,7.15779264 7.26314939,7.15779264 C6.84213593,7.15779264 6.52623486,7.34723178 6.37894218,7.70512141 C6.04206751,8.4630133 6.5473814,9.85251935 7.15784903,10.989282 C6.98940981,11.5366108 6.77897827,12.1260446 6.52623486,12.7788241 C6.37879557,13.1366987 6.21050673,13.4945733 6.04206375,13.8314518 C4.31567926,14.5052086 3.26305164,15.2629501 3.11575896,15.9788497 C3.05261258,16.3157244 3.15790542,16.6104639 3.45263364,16.8420419 C3.62107285,16.9683347 3.81050823,17.0526276 4.02109015,17.0526276 C4.10523645,17.0526276 4.18952936,17.0316281 4.27367566,17.0104812 C5.07371025,16.7998955 5.93675212,15.6209751 6.56836628,14.4210548 C6.94723704,14.2736155 7.38941583,14.1263266 7.87358694,14.0000414 C8.44204345,13.8316021 8.94722952,13.7053131 9.38937072,13.6211706 C10.2104203,14.2737621 10.9051545,14.6316555 11.5156409,14.6316555 C11.9787971,14.6526551 12.3156755,14.4842162 12.6314262,14.1684994 C13.0945824,13.7053432 12.9051545,13.3053071 12.8420119,13.2000068 C12.4631411,12.6105353 11.3053635,12.4841072 9.57897903,12.7999707 L9.57898655,12.7999519 Z M4.06321781,16.2735478 C3.97907151,16.2945474 3.93692505,16.2735478 3.89477859,16.2525483 C3.81063229,16.1894019 3.81063229,16.1472555 3.83163221,16.105109 C3.87377867,15.8525235 4.35794602,15.3893598 5.41057364,14.884061 C4.90527479,15.6419528 4.39993835,16.189432 4.06321029,16.273567 L4.06321781,16.2735478 Z M7.05268025,7.99989474 C7.0736798,7.95774828 7.09482671,7.8946019 7.26326593,7.8946019 C7.41070522,7.8946019 7.4738516,7.95774828 7.51585144,7.99989474 C7.70529058,8.27362303 7.68429066,8.96838734 7.45270507,9.89454927 C7.09483047,9.09466506 6.90526351,8.33673558 7.05266897,7.99989474 L7.05268025,7.99989474 Z M7.64215172,13.2630328 C7.43156605,13.3261792 7.22113827,13.3893256 7.01053755,13.452472 C7.07368393,13.3050327 7.13683031,13.1577438 7.19997669,13.0314585 C7.34741599,12.6314224 7.51570483,12.2314239 7.66313285,11.8104105 C7.83157206,12.0419961 7.97886098,12.2525893 8.126289,12.399882 C8.31572814,12.6104676 8.50515976,12.799918 8.69474551,12.9893534 C8.35787084,13.0736463 8.00001128,13.1577926 7.64211789,13.2630817 L7.64215172,13.2630328 Z M12.0842403,13.6419036 C11.936801,13.8103428 11.7473656,13.8734892 11.5157838,13.8734892 C11.2000556,13.8734892 10.8210495,13.7260499 10.3790211,13.4313104 C11.6000692,13.2630178 12.2946906,13.3893106 12.0842403,13.6418961 L12.0842403,13.6419036 Z"/><path d="M15.5368589,5.07366514 L10.9263499,0.463156154 C10.6316217,0.168427938 10.2316157,0 9.83157958,0 L1.55792647,0 C1.13691302,0 0.757891888,0.168439216 0.463156154,0.463156154 C0.168427938,0.757884369 0,1.13676264 0,1.55792647 L0,18.4420735 C0,19.3052658 0.69473423,20 1.55792647,20 L14.4420886,20 C15.3052808,20 16.000015,19.3052658 16.000015,18.4420735 L16.000015,6.16843546 C16.000015,5.76854974 15.8315758,5.36855125 15.5368589,5.07381551 L15.5368589,5.07366514 Z M14.6526517,5.45253589 L11.2420254,5.45253589 C10.8631546,5.45253589 10.5472912,5.13680776 10.5472912,4.75780166 L10.5474381,1.36834072 L14.6526517,5.45253589 Z M14.442066,19.0945899 L1.55790392,19.0945899 C1.20002932,19.0945899 0.905312386,18.7998617 0.905312386,18.4419983 L0.905312386,1.55785129 C0.905312386,1.38941207 0.968458765,1.22097661 1.09475152,1.09469513 C1.22104428,0.968402374 1.38947974,0.905255995 1.55790768,0.905255995 L9.64208781,0.905255995 L9.64208781,4.75787309 C9.64208781,5.64208029 10.357837,6.35782948 11.2420442,6.35782948 L15.0946613,6.35782948 L15.0946613,18.4419946 C15.0946613,18.7997226 14.7999331,19.0945899 14.4420698,19.0945899 L14.442066,19.0945899 Z"/></svg>