<?xml version="1.0" encoding="UTF-8"?>
<svg width="24px" height="24px" viewBox="0 0 24 24" version="1.1" xmlns="http://www.w3.org/2000/svg" xmlns:xlink="http://www.w3.org/1999/xlink">
    <title>1E505861-9B3B-4A24-9B26-7530E433EB6B</title>
    <g id="Style-guide" stroke="none" stroke-width="1" fill="none" fill-rule="evenodd">
        <g id="Common_components_Style_Guide" transform="translate(-410.000000, -5615.000000)">
            <g id="button-copy" transform="translate(362.000000, 5597.000000)">
                <g id="Group" transform="translate(48.000000, 18.000000)">
                    <path d="M24,11.9999028 C24,18.6274894 18.6274459,24 12,24 C5.37235973,24 0,18.6274894 0,11.9999028 C0,5.37251059 5.37235973,0 12,0 C18.6274459,0 24,5.37251059 24,11.9999028 Z" id="Fill-51" fill="#FFFFFF"></path>
                    <path d="M15.8426981,12.8696004 L10.1808727,16.0843657 C9.70060568,16.3570597 9.09021016,16.1887885 8.81751616,15.7085214 C8.73204827,15.5579959 8.68711656,15.3878626 8.68711656,15.2147653 L8.68711656,8.78523475 C8.68711656,8.23295 9.13483181,7.78523475 9.68711656,7.78523475 C9.86021394,7.78523475 10.0303472,7.83016645 10.1808727,7.91563435 L15.8426981,11.1303996 C16.3229651,11.4030936 16.4912363,12.0134891 16.2185423,12.4937562 C16.1294595,12.6506484 15.9995903,12.7805175 15.8426981,12.8696004 Z" id="Fill-52" fill="#0F1A43"></path>
                </g>
            </g>
        </g>
    </g>
</svg>