<?xml version="1.0" encoding="UTF-8"?>
<svg width="26.0689655px" height="18px" viewBox="0 0 26.0689655 18" version="1.1" xmlns="http://www.w3.org/2000/svg" xmlns:xlink="http://www.w3.org/1999/xlink">
    <title>E3FB3770-2BBD-4635-80F7-6867FE001D8A</title>
    <g id="Style-guide" stroke="none" stroke-width="1" fill="none" fill-rule="evenodd">
        <g id="Common_components_Style_Guide" transform="translate(-241.000000, -4280.000000)" fill="#0F1A43" fill-rule="nonzero">
            <g id="Group-2" transform="translate(108.000000, 4279.000000)">
                <g id="Group-4" transform="translate(133.000000, 1.000000)">
                    <path d="M16.4288043,0.290873266 C16.8166353,-0.0969577552 17.4454336,-0.0969577552 17.8332647,0.290873266 L25.7780923,8.23570085 C26.1659233,8.62353187 26.1659233,9.2523302 25.7780923,9.64016122 C25.3902612,10.0279922 24.7614629,10.0279922 24.3736319,9.64016122 L16.4288043,1.69533363 C16.0409733,1.30750261 16.0409733,0.678704286 16.4288043,0.290873266 Z" id="Line-2-Copy"></path>
                    <path d="M16.4288043,8.35983878 C16.8166353,7.97200776 17.4454336,7.97200776 17.8332647,8.35983878 L25.7780923,16.3046664 C26.1659233,16.6924974 26.1659233,17.3212957 25.7780923,17.7091267 C25.3902612,18.0969578 24.7614629,18.0969578 24.3736319,17.7091267 L16.4288043,9.76429915 C16.0409733,9.37646813 16.0409733,8.7476698 16.4288043,8.35983878 Z" id="Line-2-Copy-2" transform="translate(21.103448, 13.034483) scale(1, -1) translate(-21.103448, -13.034483) "></path>
                    <path d="M25.066313,8.06896552 C25.6200627,8.06896552 26.0689655,8.48580385 26.0689655,9 C26.0689655,9.51419615 25.6200627,9.93103448 25.066313,9.93103448 L1.00265252,9.93103448 C0.448902824,9.93103448 0,9.51419615 0,9 C0,8.48580385 0.448902824,8.06896552 1.00265252,8.06896552 L25.066313,8.06896552 Z" id="Line-2"></path>
                </g>
            </g>
        </g>
    </g>
</svg>