<svg xmlns="http://www.w3.org/2000/svg" xmlns:xlink="http://www.w3.org/1999/xlink" width="18.998" height="15.131" viewBox="0 0 18.998 15.131"><defs><path id="a" d="M15.1869898,2.49288288 L15.1527592,2.46807808 C14.4453261,1.73633634 13.6123808,1.38906907 12.6539231,1.43867868 L12.6196925,1.36426426 L12.6425129,1.35186186 C13.5096889,1.14102102 14.0231483,0.917777778 14.1828913,0.66972973 C14.2285321,0.471291291 14.1714811,0.35966967 13.9775075,0.334864865 C13.5439195,0.396876877 13.133152,0.496096096 12.7794354,0.657327327 C13.2358438,0.334864865 13.406997,0.111621622 13.3043051,0 C12.8593069,0.0124024024 12.3686679,0.26045045 11.8666186,0.756546547 C12.049182,0.409279279 12.1290535,0.210840841 12.0834126,0.186036036 C11.832388,0.35966967 11.6270042,0.558108108 11.4444408,0.768948949 C11.0564937,1.24024024 10.748418,1.67432432 10.5088036,2.0712012 L10.4973934,2.09600601 C9.89265225,3.17501502 9.45906426,4.25402402 9.20803964,5.35783784 L9.11675796,5.44465465 L9.09393754,5.45705706 C8.72881081,4.96096096 8.28381261,4.53927928 7.75894294,4.20441441 C7.14279159,3.75792793 6.41253814,3.34864865 5.56818258,2.93936937 C4.65536577,2.41846847 3.71972853,1.99678679 2.78409129,1.66192192 C2.77268108,2.81534535 3.29755075,3.72072072 4.31305946,4.39045045 L4.31305946,4.40285285 C3.95934294,4.40285285 3.60562643,4.46486486 3.26332012,4.57648649 C3.33178138,5.64309309 4.0278042,6.37483483 5.33997838,6.77171171 L5.32856817,6.79651652 C4.81510871,6.75930931 4.39293093,6.95774775 4.06203483,7.36702703 C4.49562282,8.2848048 5.26010691,8.71888889 6.3668973,8.69408408 C6.1501033,8.81810811 5.97895015,8.94213213 5.86484805,9.09096096 C5.65946426,9.32660661 5.591003,9.59945946 5.65946426,9.90951952 C5.89907868,10.3808108 6.32125646,10.5916517 6.94881802,10.5544444 L6.98304865,10.6040541 L6.97163844,10.6288589 C5.88766847,11.8442943 4.57549429,12.39 3.04652613,12.2783784 L3.02370571,12.2907808 C2.08806847,12.2783784 1.08396997,11.7946847 0,10.8272973 C1.08396997,12.5264264 2.53306667,13.7542643 4.32446967,14.5356156 C6.3668973,15.2673574 8.42073514,15.3293694 10.4631628,14.6968468 L10.4973934,14.6968468 C12.48277,14.0767267 14.1600709,12.7868769 15.5521165,10.8521021 C16.1910883,9.84750751 16.5904456,8.88012012 16.7501886,7.94993994 C17.7885177,7.98714715 18.5301814,7.66468468 18.998,6.97015015 L18.9865898,6.94534535 C18.6328733,7.08177177 17.9596709,7.04456456 16.9669826,6.82132132 L16.9669826,6.6972973 C18.0623628,6.56087087 18.7127447,6.1763964 18.9181285,5.54387387 C18.1536444,5.86633634 17.4005706,5.87873874 16.6589069,5.56867868 C16.5219844,4.45246246 16.0313453,3.42306306 15.1869898,2.49288288"/></defs><g fill="none" fill-rule="evenodd"><mask id="b" fill="#fff"><use xlink:href="#a"/></mask><use xlink:href="#a" fill="#C2D1D9"/><g fill="#AEAEAE" mask="url(#b)"><rect width="22.08" height="24" transform="translate(-1.84 -4)"/></g></g></svg>